<svg width="1200" height="800" viewBox="0 0 1200 800" fill="none" xmlns="http://www.w3.org/2000/svg">
  <rect width="1200" height="800" fill="#FFF2E7"/>
  <circle cx="1023" cy="116" r="73" fill="#F7C562"/>
  <path d="M0 536C155 521 334 488 501 446C730 388 956 387 1200 468V800H0V536Z" fill="#D38F56"/>
  <rect y="606" width="1200" height="194" fill="#45362D"/>
  <path d="M223 578L392 504H736L896 578H989V648H196V578H223Z" fill="#D6D9DD"/>
  <path d="M373 521H710L812 573H307L373 521Z" fill="#B3D2EA"/>
  <circle cx="345" cy="654" r="46" fill="#171717"/>
  <circle cx="345" cy="654" r="18" fill="#9AA1A8"/>
  <circle cx="848" cy="654" r="46" fill="#171717"/>
  <circle cx="848" cy="654" r="18" fill="#9AA1A8"/>
  <text x="89" y="108" fill="#34261F" font-family="Arial" font-size="48" font-weight="700">Temple Circuit Premium</text>
  <text x="89" y="158" fill="#755745" font-family="Arial" font-size="26">Ideal for couples and executive bookings</text>
</svg>
